<svg width="17" height="20" viewBox="0 0 17 20" fill="none" xmlns="http://www.w3.org/2000/svg">
<g clip-path="url(#clip0_409_30227)">
<path d="M15.1111 7.14118C13.9117 7.88235 13.1708 9.15294 13.1708 10.5647C13.1708 12.1529 14.1233 13.6 15.5697 14.2C15.2875 15.1176 14.8641 15.9647 14.335 16.7412C13.5589 17.8353 12.7475 18.9647 11.5481 18.9647C10.3487 18.9647 9.9959 18.2588 8.58482 18.2588C7.20901 18.2588 6.71513 19 5.58627 19C4.4574 19 3.6813 17.9765 2.79937 16.7059C1.63523 14.9412 0.964965 12.8941 0.929688 10.7412C0.929688 7.24706 3.18742 5.37647 5.44516 5.37647C6.64458 5.37647 7.63234 6.15294 8.37316 6.15294C9.0787 6.15294 10.2076 5.34118 11.5481 5.34118C12.9592 5.30588 14.2997 5.97647 15.1111 7.14118ZM10.9131 3.85882C11.5128 3.15294 11.8303 2.27059 11.8656 1.35294C11.8656 1.24706 11.8656 1.10588 11.8303 1C10.8073 1.10588 9.8548 1.6 9.18453 2.37647C8.58482 3.04706 8.23205 3.89412 8.19677 4.81176C8.19677 4.91765 8.19677 5.02353 8.23205 5.12941C8.3026 5.12941 8.40843 5.16471 8.47899 5.16471C9.43147 5.09412 10.3134 4.6 10.9131 3.85882Z" fill="#2F2B43"/>
</g>
<defs>
<clipPath id="clip0_409_30227">
<rect width="16.2667" height="20" fill="white" transform="translate(0.116211)"/>
</clipPath>
</defs>
</svg>
